# xmcd CD database file
#
# Track frame offsets:
#	150
#	23717
#	46001
#	75051
#	89189
#	132002
#	154796
#	175678
#	196334
#	215762
#
# Disc length: 3223 seconds
#
# Revision: 1
# Processed by: cddbd v1.5PL3 Copyright (c) Steve Scherf et al.
# Submitted via: CDex 1.50beta10
#
DISCID=750c950a
DTITLE=Eric's Blues Band - There's an angel in my tree
DYEAR=2004
DGENRE=Blues
TTITLE0=The man from Michigan
TTITLE1=Angel in my tree
TTITLE2=It's all over
TTITLE3=I don't know
TTITLE4=Little girl
TTITLE5=Your scent is like a flower
TTITLE6=Please fight
TTITLE7=Wonder what it is with me?
TTITLE8=Two candles burning
TTITLE9=Flower
EXTD=YEAR: 2004
EXTT0=
EXTT1=
EXTT2=
EXTT3=
EXTT4=
EXTT5=
EXTT6=
EXTT7=
EXTT8=
EXTT9=
PLAYORDER=
